<?xml version="1.0" standalone="no"?>
<!DOCTYPE svg PUBLIC "-//W3C//DTD SVG 20010904//EN"
 "http://www.w3.org/TR/2001/REC-SVG-20010904/DTD/svg10.dtd">
<svg version="1.0" xmlns="http://www.w3.org/2000/svg"
 width="2178.000000pt" height="2178.000000pt" viewBox="0 0 2178.000000 2178.000000"
 preserveAspectRatio="xMidYMid meet">
<metadata>
Created by potrace 1.14, written by Peter Selinger 2001-2017
</metadata>
<g transform="translate(0.000000,2178.000000) scale(0.100000,-0.100000)"
fill="#000000" stroke="none">
<path d="M8368 19845 c-2 -1 -66 -5 -144 -9 -163 -7 -193 -15 -220 -59 -18
-31 -19 -60 -22 -912 l-3 -880 28 -27 c15 -15 41 -34 57 -42 29 -15 32 -14 78
19 26 19 51 35 55 35 4 0 16 8 27 18 17 15 107 73 265 170 24 15 84 47 236
127 92 48 297 140 440 198 211 86 638 216 825 251 14 2 70 14 125 25 137 27
318 56 420 67 28 3 61 7 75 10 21 3 198 17 238 19 12 0 14 -497 17 -3015 3
-2709 5 -3103 20 -3175 2 -11 4 -28 4 -38 1 -9 15 -32 32 -50 l31 -32 445 -4
444 -3 26 23 c55 51 61 85 64 324 1 121 3 1513 3 3093 l1 2874 100 -6 c97 -6
154 -11 260 -21 28 -3 73 -8 100 -10 69 -7 136 -15 160 -20 11 -3 43 -7 72
-10 61 -5 199 -28 338 -56 55 -11 111 -23 125 -25 14 -3 86 -21 159 -40 557
-145 939 -364 1126 -645 25 -36 47 -73 51 -82 10 -27 39 -20 79 17 28 27 38
45 45 88 5 29 8 422 7 873 -2 858 -1 841 -43 883 -8 7 -34 22 -59 33 -44 20
-67 20 -3064 19 -1661 -1 -3021 -3 -3023 -5z"/>
<path d="M9600 17679 c-112 -8 -138 -25 -159 -102 -9 -32 -11 -777 -8 -3142 2
-1705 7 -3125 11 -3155 13 -107 17 -118 54 -145 26 -19 46 -20 470 -23 l442
-4 31 33 c17 19 36 45 41 59 6 14 13 147 15 295 7 403 8 5661 0 5872 -4 140
-10 191 -23 218 -19 40 -76 94 -102 96 -58 5 -710 3 -772 -2z"/>
<path d="M8785 15553 c-33 -7 -69 -14 -80 -17 -37 -8 -309 -97 -342 -112 -17
-8 -34 -14 -38 -14 -8 0 -285 -106 -340 -130 -484 -213 -798 -385 -1185 -648
-132 -90 -424 -303 -440 -321 -3 -3 -40 -35 -84 -70 -43 -36 -99 -83 -125
-105 -76 -68 -541 -534 -633 -636 -248 -273 -537 -671 -753 -1038 -15 -25 -95
-169 -127 -227 -299 -547 -558 -1271 -673 -1880 -16 -82 -37 -203 -40 -225 -2
-14 -8 -54 -14 -90 -11 -73 -17 -120 -26 -200 -3 -30 -9 -75 -12 -100 -6 -50
-8 -68 -19 -250 -16 -240 -10 -811 10 -990 3 -19 7 -66 11 -105 8 -84 11 -114
21 -180 4 -27 7 -53 6 -56 0 -3 5 -45 13 -92 8 -48 17 -106 20 -129 4 -24 8
-45 10 -48 1 -3 6 -26 9 -52 6 -41 51 -252 91 -418 59 -250 191 -643 309 -925
78 -184 86 -202 201 -430 168 -333 353 -638 560 -925 74 -103 170 -230 200
-264 6 -6 44 -51 85 -101 41 -49 77 -92 80 -95 3 -3 32 -36 65 -75 168 -196
606 -611 810 -768 6 -4 21 -17 35 -28 14 -12 77 -60 140 -107 63 -47 131 -97
150 -112 29 -22 339 -227 405 -267 490 -300 1109 -575 1636 -727 116 -33 309
-84 339 -89 14 -3 45 -10 70 -17 25 -7 56 -14 70 -16 14 -3 68 -13 120 -24 52
-11 111 -22 130 -25 136 -22 293 -46 338 -51 29 -3 61 -7 70 -9 9 -1 53 -6 97
-10 44 -3 96 -8 115 -10 47 -5 205 -15 310 -20 231 -12 735 -1 895 19 17 2 66
7 110 11 44 3 87 8 95 10 8 2 42 7 74 10 129 13 508 78 641 111 11 3 31 7 44
10 212 44 808 229 946 294 11 5 76 32 145 61 153 63 213 90 403 185 337 168
578 313 952 572 104 72 419 321 501 397 6 5 49 44 95 85 192 171 548 540 654
678 11 14 34 42 51 61 160 187 437 585 579 833 225 392 388 731 513 1068 59
158 112 315 118 349 3 14 7 28 10 32 9 15 105 370 119 440 2 9 12 59 24 110
23 109 67 351 77 424 3 28 7 57 9 65 2 8 6 47 10 85 4 39 9 78 11 89 2 10 6
51 10 90 3 39 8 87 10 106 28 277 23 930 -10 1204 -4 28 -9 74 -11 101 -3 28
-7 64 -10 80 -8 62 -45 301 -50 330 -18 102 -48 248 -60 295 -8 30 -16 66 -18
80 -9 46 -67 264 -103 380 -108 352 -228 659 -392 1000 -34 71 -167 323 -201
382 -82 140 -126 211 -199 323 -94 145 -254 370 -322 456 -25 31 -58 74 -75
95 -214 274 -611 684 -884 914 -30 25 -59 50 -65 55 -95 88 -648 495 -671 495
-2 0 -38 23 -79 50 -42 28 -78 50 -80 50 -2 0 -40 22 -83 48 -273 169 -731
388 -1068 512 -93 35 -179 66 -190 71 -33 13 -203 66 -300 94 -87 24 -169 32
-191 17 -14 -9 -34 -46 -40 -75 -10 -44 -14 -318 -14 -1002 -1 -1034 2 -1088
53 -1143 25 -26 88 -62 287 -163 80 -40 178 -92 218 -116 41 -24 76 -43 78
-43 3 0 17 -8 32 -19 15 -10 54 -35 87 -56 164 -103 376 -256 475 -341 230
-199 487 -459 659 -669 234 -285 505 -743 651 -1100 60 -148 72 -181 115 -310
68 -204 121 -406 151 -575 2 -14 9 -45 14 -70 9 -41 18 -96 25 -157 2 -13 6
-40 9 -60 36 -225 42 -843 11 -1083 -3 -19 -7 -55 -10 -80 -21 -159 -61 -374
-100 -525 -14 -55 -27 -107 -29 -116 -32 -134 -152 -465 -235 -649 -112 -247
-277 -540 -409 -725 -254 -355 -481 -607 -796 -880 -157 -137 -390 -305 -611
-440 -105 -65 -426 -233 -510 -267 -22 -10 -76 -32 -121 -51 -213 -91 -585
-204 -829 -253 -11 -2 -31 -6 -45 -9 -14 -2 -41 -7 -60 -10 -36 -6 -130 -22
-165 -29 -11 -2 -54 -7 -95 -11 -41 -4 -84 -9 -94 -11 -134 -25 -729 -25 -941
1 -16 2 -57 7 -90 11 -33 3 -69 8 -80 10 -10 2 -37 6 -58 9 -589 88 -1165 303
-1712 638 -111 68 -382 262 -465 333 -14 12 -61 52 -105 89 -78 66 -370 355
-430 425 -219 255 -422 537 -535 745 -18 33 -36 65 -40 70 -15 18 -148 289
-190 385 -149 340 -261 720 -325 1105 -3 17 -7 41 -10 55 -3 14 -7 52 -11 85
-3 33 -7 66 -9 72 -27 83 -26 823 1 1044 3 24 7 58 9 74 12 108 68 399 106
545 139 539 414 1116 748 1569 162 220 406 486 646 704 189 172 445 362 660
492 133 80 171 101 405 219 124 63 236 126 248 139 13 14 28 42 33 64 5 21 8
487 8 1071 l-2 1033 -33 26 c-46 34 -88 42 -159 26z"/>
</g>
</svg>
